# xmcd CD database file
#
# Track frame offsets:
#	150
#	5754
#	14529
#	33692
#	58508
#	66050
#	85500
#	100920
#	108622
#	123659
#	131143
#	138464
#	146912
#	159071
#	167560
#	172063
#	183621
#
# Disc length: 2593 seconds
#
# Revision: 0
# Processed by: cddbd v1.5.2PL0 Copyright (c) Steve Scherf et al.
# Submitted via: CDex 2.19
#
DISCID=f40a1f11
DTITLE=Piero Umiliani and Chet Baker - Intrigo A Los Angeles
DYEAR=1964
DGENRE=Jazz
TTITLE0=Idillio Giallorosa
TTITLE1=Minorenne Cercasi 
TTITLE2=Movimento Con Swing
TTITLE3=Tipi Sospetti 
TTITLE4=Motel 
TTITLE5=Spogliarello Da Circo 
TTITLE6=Jazz Bar
TTITLE7=Pedinamento 
TTITLE8=Agguato 
TTITLE9=Nel Labirinto
TTITLE10=Ritmo Neutronico 
TTITLE11=Contagio Atomico 
TTITLE12=Messaggio Elettronico
TTITLE13=Fissione Nucleare 
TTITLE14=Comunicazione Spaziale 
TTITLE15=Spogliarello Da Circo (II) 
TTITLE16=Agguato (II) 
EXTD=YEAR: 1964
EXTT0=
EXTT1=
EXTT2=
EXTT3=
EXTT4=
EXTT5=
EXTT6=
EXTT7=
EXTT8=
EXTT9=
EXTT10=
EXTT11=
EXTT12=
EXTT13=
EXTT14=
EXTT15=
EXTT16=
PLAYORDER=
